<svg width="9px" height="14px" xmlns="http://www.w3.org/2000/svg" xmlns:xlink="http://www.w3.org/1999/xlink"><defs><path d="M7.5 11.7269472c-.38626931 0-.62349693-.1545737-.9352454-.4871054L1.17776397 5.49371843c-.32035196-.34170875-.32035196-.89572811 0-1.23743686.32035196-.34170876.8397451-.34170876 1.16009706 0L7.5 9.76256313l5.162139-5.50628156c.3203519-.34170876.8397451-.34170876 1.160097 0 .320352.34170875.320352.89572811 0 1.23743686L8.45441599 11.2193931c-.31813867.339348-.56814668.5075541-.95441599.5075541Z" id="a"/></defs><g transform="translate(-1283 -608)" fill="none" fill-rule="evenodd"><rect fill="#none" width="1366" height="829"/><g transform="matrix(-1 0 0 1 1295 607)"><rect width="15" height="16"/><mask id="b" fill="white"><use xlink:href="#a"/></mask><g mask="url(#b)" fill="#333333"><polygon points="0 0 169 0 169 130 0 130" transform="translate(-76.875 -57)"/></g></g></g></svg>